
<?xml version="1.0" encoding="UTF-8" standalone="no"?><svg xmlns="http://www.w3.org/2000/svg" xmlns:xlink="http://www.w3.org/1999/xlink" contentScriptType="application/ecmascript" contentStyleType="text/css" height="209px" preserveAspectRatio="none" style="width:289px;height:209px;background:#000000;" version="1.1" viewBox="0 0 289 209" width="289px" zoomAndPan="magnify"><defs><filter height="300%" id="ftwg9pyj7ncm4" width="300%" x="-1" y="-1"><feGaussianBlur result="blurOut" stdDeviation="2.0"/><feColorMatrix in="blurOut" result="blurOut2" type="matrix" values="0 0 0 0 0 0 0 0 0 0 0 0 0 0 0 0 0 0 .4 0"/><feOffset dx="4.0" dy="4.0" in="blurOut2" result="blurOut3"/><feBlend in="SourceGraphic" in2="blurOut3" mode="normal"/></filter></defs><g><!--entity users--><polygon fill="#070707" filter="url(#ftwg9pyj7ncm4)" points="40.5,161,50.5,151,119.5,151,119.5,187.2969,109.5,197.2969,40.5,197.2969,40.5,161" style="stroke: #FFFFFF; stroke-width: 1.5;"/><line style="stroke: #FFFFFF; stroke-width: 1.5;" x1="109.5" x2="118.5" y1="161" y2="152"/><line style="stroke: #FFFFFF; stroke-width: 1.5;" x1="40.5" x2="109.5" y1="161" y2="161"/><line style="stroke: #FFFFFF; stroke-width: 1.5;" x1="109.5" x2="109.5" y1="161" y2="197.2969"/><text fill="#FFFFFF" font-family="sans-serif" font-size="14" lengthAdjust="spacingAndGlyphs" textLength="39" x="55.5" y="183.9951">users</text><!--entity notifications--><polygon fill="#070707" filter="url(#ftwg9pyj7ncm4)" points="83.5,36.5,93.5,26.5,206.5,26.5,206.5,62.7969,196.5,72.7969,83.5,72.7969,83.5,36.5" style="stroke: #FFFFFF; stroke-width: 1.5;"/><line style="stroke: #FFFFFF; stroke-width: 1.5;" x1="196.5" x2="205.5" y1="36.5" y2="27.5"/><line style="stroke: #FFFFFF; stroke-width: 1.5;" x1="83.5" x2="196.5" y1="36.5" y2="36.5"/><line style="stroke: #FFFFFF; stroke-width: 1.5;" x1="196.5" x2="196.5" y1="36.5" y2="72.7969"/><text fill="#FFFFFF" font-family="sans-serif" font-size="14" lengthAdjust="spacingAndGlyphs" textLength="83" x="98.5" y="59.4951">notifications</text><!--entity messages--><polygon fill="#070707" filter="url(#ftwg9pyj7ncm4)" points="155,161,165,151,267,151,267,187.2969,257,197.2969,155,197.2969,155,161" style="stroke: #FFFFFF; stroke-width: 1.5;"/><line style="stroke: #FFFFFF; stroke-width: 1.5;" x1="257" x2="266" y1="161" y2="152"/><line style="stroke: #FFFFFF; stroke-width: 1.5;" x1="155" x2="257" y1="161" y2="161"/><line style="stroke: #FFFFFF; stroke-width: 1.5;" x1="257" x2="257" y1="161" y2="197.2969"/><text fill="#FFFFFF" font-family="sans-serif" font-size="14" lengthAdjust="spacingAndGlyphs" textLength="72" x="170" y="183.9951">messages</text><!--entity admin--><ellipse cx="27" cy="18" fill="#070707" filter="url(#ftwg9pyj7ncm4)" rx="8" ry="8" style="stroke: #C7C7C7; stroke-width: 2.0;"/><path d="M27,26 L27,53 M14,34 L40,34 M27,53 L14,68 M27,53 L40,68 " fill="none" filter="url(#ftwg9pyj7ncm4)" style="stroke: #C7C7C7; stroke-width: 2.0;"/><text fill="#FFFFFF" font-family="sans-serif" font-size="14" lengthAdjust="spacingAndGlyphs" textLength="42" x="6" y="87.9951">admin</text><!--link notifications to users--><path d="M133.229,72.684 C122.231,93.411 105.7979,124.3809 94.1033,146.4206 " fill="none" id="notifications-users" style="stroke: #C7C7C7; stroke-width: 1.0;"/><polygon fill="#C7C7C7" points="91.6834,150.9812,99.4352,144.9059,94.027,146.5645,92.3685,141.1562,91.6834,150.9812" style="stroke: #C7C7C7; stroke-width: 1.0;"/><!--link notifications to messages--><path d="M156.952,72.684 C168.119,93.411 184.805,124.3809 196.68,146.4206 " fill="none" id="notifications-messages" style="stroke: #C7C7C7; stroke-width: 1.0;"/><polygon fill="#C7C7C7" points="199.137,150.9812,198.3893,141.1608,196.7653,146.5795,191.3465,144.9555,199.137,150.9812" style="stroke: #C7C7C7; stroke-width: 1.0;"/><!--link admin to notifications--><path d="M48.2031,49.5 C58.1847,49.5 68.1663,49.5 78.1479,49.5 " fill="none" id="admin-notifications" style="stroke: #C7C7C7; stroke-width: 1.0;"/><polygon fill="#C7C7C7" points="83.3676,49.5,74.3676,45.5,78.3676,49.5,74.3676,53.5,83.3676,49.5" style="stroke: #C7C7C7; stroke-width: 1.0;"/><!--
@startuml
skinparam monochrome reverse

node users
node notifications
node messages
actor admin
notifications - -> users
notifications - -> messages
admin -> notifications
@enduml

PlantUML version 1.2018.07beta8(Unknown compile time)
(GPL source distribution)
Java Runtime: Java(TM) SE Runtime Environment
JVM: Java HotSpot(TM) 64-Bit Server VM
Java Version: 1.7.0_25-b15
Operating System: Linux
Default Encoding: UTF-8
Language: en
Country: US
--></g></svg>