<?xml version="1.0" encoding="utf-8"?>
<!-- Generator: Adobe Illustrator 19.1.0, SVG Export Plug-In . SVG Version: 6.00 Build 0)  -->
<svg version="1.1" id="Layer_1" xmlns="http://www.w3.org/2000/svg" xmlns:xlink="http://www.w3.org/1999/xlink" x="0px" y="0px"
	 viewBox="0 0 30 30" style="enable-background:new 0 0 30 30;" xml:space="preserve">
<style type="text/css">
	.st0{fill:#00A6E7;}
</style>
<g>
	<path class="st0" d="M9,2.5l0,10.6c0,1.4,1.1,2.5,2.5,2.5c1.4,0,2.5-1.1,2.5-2.5V2.5C14,1.1,12.9,0,11.5,0C10.1,0,9,1.1,9,2.5"/>
	<path class="st0" d="M16,2.5v10.6c0,1.4,1.1,2.5,2.5,2.5c1.4,0,2.5-1.1,2.5-2.5V2.5C21,1.1,19.9,0,18.5,0C17.1,0,16,1.1,16,2.5"/>
	<path class="st0" d="M23.6,5.5c-1.1,0.8-1.3,2.3-0.5,3.4c1.3,1.8,2.1,3.9,2.1,6.1c0,2.7-1.1,5.3-3,7.2c-1.9,1.9-4.5,3-7.2,3
		c-2.7,0-5.3-1.1-7.2-3c-1.9-1.9-3-4.5-3-7.2c0-2.2,0.7-4.4,2.1-6.1c0.8-1.1,0.6-2.6-0.5-3.4C5.4,4.7,3.8,4.9,3,5.9
		c-2,2.6-3,5.8-3,9.1c0,4,1.6,7.8,4.4,10.6C7.2,28.4,11,30,15,30s7.8-1.6,10.6-4.4C28.4,22.8,30,19,30,15c0-3.3-1-6.4-3-9.1
		C26.2,4.9,24.6,4.7,23.6,5.5"/>
</g>
</svg>
